# xmcd CD database file
#
# Track frame offsets:
#	150
#	20048
#	46594
#	67073
#	84614
#	108855
#	126406
#	136035
#	159940
#	178994
#	219869
#
# Disc length: 3130 seconds
#
# Revision: 0
# Processed by: cddbd v1.5.2PL0 Copyright (c) Steve Scherf et al.
# Submitted via: CDex 1.51
#
DISCID=910c380b
DTITLE=Eric Assmar Trio - Eric Assmar Trio
DYEAR=2012
DGENRE=Blues
TTITLE0=Welcome To This Song
TTITLE1=Senhor
TTITLE2=Waiting On You
TTITLE3=Ao Avesso
TTITLE4=In My Own Way
TTITLE5=Lonesome Walker
TTITLE6=Abre Aspas
TTITLE7=Sangue No Olho
TTITLE8=Voz
TTITLE9=O Que Virá
TTITLE10=Hanna
EXTD=YEAR: 2012
EXTT0=
EXTT1=
EXTT2=
EXTT3=
EXTT4=
EXTT5=
EXTT6=
EXTT7=
EXTT8=
EXTT9=
EXTT10=
PLAYORDER=
